<mxfile host="app.diagrams.net" agent="Mozilla/5.0 (Windows NT 10.0; Win64; x64) AppleWebKit/537.36 (KHTML, like Gecko) Chrome/128.0.0.0 Safari/537.36" version="24.7.10">
  <diagram id="R2lEEEUBdFMjLlhIrx00" name="Page-1">
    <mxGraphModel dx="1509" dy="5" grid="1" gridSize="10" guides="1" tooltips="1" connect="1" arrows="1" fold="1" page="1" pageScale="1" pageWidth="1100" pageHeight="850" math="0" shadow="0" extFonts="Permanent Marker^https://fonts.googleapis.com/css?family=Permanent+Marker">
      <root>
        <mxCell id="0" />
        <mxCell id="1" parent="0" />
        <mxCell id="5PAfQ1aydiVWRfnhMQ-c-378" value="USER" style="shape=table;startSize=25;container=1;collapsible=0;childLayout=tableLayout;fixedRows=1;rowLines=1;fontStyle=1;align=center;resizeLast=1;" vertex="1" parent="1">
          <mxGeometry x="187" y="990" width="165" height="289" as="geometry" />
        </mxCell>
        <mxCell id="5PAfQ1aydiVWRfnhMQ-c-379" style="shape=tableRow;horizontal=0;startSize=0;swimlaneHead=0;swimlaneBody=0;fillColor=none;collapsible=0;dropTarget=0;points=[[0,0.5],[1,0.5]];portConstraint=eastwest;top=0;left=0;right=0;bottom=0;" vertex="1" parent="5PAfQ1aydiVWRfnhMQ-c-378">
          <mxGeometry y="25" width="165" height="22" as="geometry" />
        </mxCell>
        <mxCell id="5PAfQ1aydiVWRfnhMQ-c-380" value="int" style="shape=partialRectangle;connectable=0;fillColor=none;top=0;left=0;bottom=0;right=0;align=left;spacingLeft=2;overflow=hidden;fontSize=11;" vertex="1" parent="5PAfQ1aydiVWRfnhMQ-c-379">
          <mxGeometry width="36" height="22" as="geometry">
            <mxRectangle width="36" height="22" as="alternateBounds" />
          </mxGeometry>
        </mxCell>
        <mxCell id="5PAfQ1aydiVWRfnhMQ-c-381" value="UserID" style="shape=partialRectangle;connectable=0;fillColor=none;top=0;left=0;bottom=0;right=0;align=left;spacingLeft=2;overflow=hidden;fontSize=11;" vertex="1" parent="5PAfQ1aydiVWRfnhMQ-c-379">
          <mxGeometry x="36" width="129" height="22" as="geometry">
            <mxRectangle width="129" height="22" as="alternateBounds" />
          </mxGeometry>
        </mxCell>
        <mxCell id="5PAfQ1aydiVWRfnhMQ-c-382" style="shape=tableRow;horizontal=0;startSize=0;swimlaneHead=0;swimlaneBody=0;fillColor=none;collapsible=0;dropTarget=0;points=[[0,0.5],[1,0.5]];portConstraint=eastwest;top=0;left=0;right=0;bottom=0;" vertex="1" parent="5PAfQ1aydiVWRfnhMQ-c-378">
          <mxGeometry y="47" width="165" height="22" as="geometry" />
        </mxCell>
        <mxCell id="5PAfQ1aydiVWRfnhMQ-c-383" value="string" style="shape=partialRectangle;connectable=0;fillColor=none;top=0;left=0;bottom=0;right=0;align=left;spacingLeft=2;overflow=hidden;fontSize=11;" vertex="1" parent="5PAfQ1aydiVWRfnhMQ-c-382">
          <mxGeometry width="36" height="22" as="geometry">
            <mxRectangle width="36" height="22" as="alternateBounds" />
          </mxGeometry>
        </mxCell>
        <mxCell id="5PAfQ1aydiVWRfnhMQ-c-384" value="Name" style="shape=partialRectangle;connectable=0;fillColor=none;top=0;left=0;bottom=0;right=0;align=left;spacingLeft=2;overflow=hidden;fontSize=11;" vertex="1" parent="5PAfQ1aydiVWRfnhMQ-c-382">
          <mxGeometry x="36" width="129" height="22" as="geometry">
            <mxRectangle width="129" height="22" as="alternateBounds" />
          </mxGeometry>
        </mxCell>
        <mxCell id="5PAfQ1aydiVWRfnhMQ-c-385" style="shape=tableRow;horizontal=0;startSize=0;swimlaneHead=0;swimlaneBody=0;fillColor=none;collapsible=0;dropTarget=0;points=[[0,0.5],[1,0.5]];portConstraint=eastwest;top=0;left=0;right=0;bottom=0;" vertex="1" parent="5PAfQ1aydiVWRfnhMQ-c-378">
          <mxGeometry y="69" width="165" height="22" as="geometry" />
        </mxCell>
        <mxCell id="5PAfQ1aydiVWRfnhMQ-c-386" value="int" style="shape=partialRectangle;connectable=0;fillColor=none;top=0;left=0;bottom=0;right=0;align=left;spacingLeft=2;overflow=hidden;fontSize=11;" vertex="1" parent="5PAfQ1aydiVWRfnhMQ-c-385">
          <mxGeometry width="36" height="22" as="geometry">
            <mxRectangle width="36" height="22" as="alternateBounds" />
          </mxGeometry>
        </mxCell>
        <mxCell id="5PAfQ1aydiVWRfnhMQ-c-387" value="Age" style="shape=partialRectangle;connectable=0;fillColor=none;top=0;left=0;bottom=0;right=0;align=left;spacingLeft=2;overflow=hidden;fontSize=11;" vertex="1" parent="5PAfQ1aydiVWRfnhMQ-c-385">
          <mxGeometry x="36" width="129" height="22" as="geometry">
            <mxRectangle width="129" height="22" as="alternateBounds" />
          </mxGeometry>
        </mxCell>
        <mxCell id="5PAfQ1aydiVWRfnhMQ-c-388" style="shape=tableRow;horizontal=0;startSize=0;swimlaneHead=0;swimlaneBody=0;fillColor=none;collapsible=0;dropTarget=0;points=[[0,0.5],[1,0.5]];portConstraint=eastwest;top=0;left=0;right=0;bottom=0;" vertex="1" parent="5PAfQ1aydiVWRfnhMQ-c-378">
          <mxGeometry y="91" width="165" height="22" as="geometry" />
        </mxCell>
        <mxCell id="5PAfQ1aydiVWRfnhMQ-c-389" value="string" style="shape=partialRectangle;connectable=0;fillColor=none;top=0;left=0;bottom=0;right=0;align=left;spacingLeft=2;overflow=hidden;fontSize=11;" vertex="1" parent="5PAfQ1aydiVWRfnhMQ-c-388">
          <mxGeometry width="36" height="22" as="geometry">
            <mxRectangle width="36" height="22" as="alternateBounds" />
          </mxGeometry>
        </mxCell>
        <mxCell id="5PAfQ1aydiVWRfnhMQ-c-390" value="Gender" style="shape=partialRectangle;connectable=0;fillColor=none;top=0;left=0;bottom=0;right=0;align=left;spacingLeft=2;overflow=hidden;fontSize=11;" vertex="1" parent="5PAfQ1aydiVWRfnhMQ-c-388">
          <mxGeometry x="36" width="129" height="22" as="geometry">
            <mxRectangle width="129" height="22" as="alternateBounds" />
          </mxGeometry>
        </mxCell>
        <mxCell id="5PAfQ1aydiVWRfnhMQ-c-391" style="shape=tableRow;horizontal=0;startSize=0;swimlaneHead=0;swimlaneBody=0;fillColor=none;collapsible=0;dropTarget=0;points=[[0,0.5],[1,0.5]];portConstraint=eastwest;top=0;left=0;right=0;bottom=0;" vertex="1" parent="5PAfQ1aydiVWRfnhMQ-c-378">
          <mxGeometry y="113" width="165" height="22" as="geometry" />
        </mxCell>
        <mxCell id="5PAfQ1aydiVWRfnhMQ-c-392" value="float" style="shape=partialRectangle;connectable=0;fillColor=none;top=0;left=0;bottom=0;right=0;align=left;spacingLeft=2;overflow=hidden;fontSize=11;" vertex="1" parent="5PAfQ1aydiVWRfnhMQ-c-391">
          <mxGeometry width="36" height="22" as="geometry">
            <mxRectangle width="36" height="22" as="alternateBounds" />
          </mxGeometry>
        </mxCell>
        <mxCell id="5PAfQ1aydiVWRfnhMQ-c-393" value="Weight" style="shape=partialRectangle;connectable=0;fillColor=none;top=0;left=0;bottom=0;right=0;align=left;spacingLeft=2;overflow=hidden;fontSize=11;" vertex="1" parent="5PAfQ1aydiVWRfnhMQ-c-391">
          <mxGeometry x="36" width="129" height="22" as="geometry">
            <mxRectangle width="129" height="22" as="alternateBounds" />
          </mxGeometry>
        </mxCell>
        <mxCell id="5PAfQ1aydiVWRfnhMQ-c-394" style="shape=tableRow;horizontal=0;startSize=0;swimlaneHead=0;swimlaneBody=0;fillColor=none;collapsible=0;dropTarget=0;points=[[0,0.5],[1,0.5]];portConstraint=eastwest;top=0;left=0;right=0;bottom=0;" vertex="1" parent="5PAfQ1aydiVWRfnhMQ-c-378">
          <mxGeometry y="135" width="165" height="22" as="geometry" />
        </mxCell>
        <mxCell id="5PAfQ1aydiVWRfnhMQ-c-395" value="float" style="shape=partialRectangle;connectable=0;fillColor=none;top=0;left=0;bottom=0;right=0;align=left;spacingLeft=2;overflow=hidden;fontSize=11;" vertex="1" parent="5PAfQ1aydiVWRfnhMQ-c-394">
          <mxGeometry width="36" height="22" as="geometry">
            <mxRectangle width="36" height="22" as="alternateBounds" />
          </mxGeometry>
        </mxCell>
        <mxCell id="5PAfQ1aydiVWRfnhMQ-c-396" value="TargetWeight" style="shape=partialRectangle;connectable=0;fillColor=none;top=0;left=0;bottom=0;right=0;align=left;spacingLeft=2;overflow=hidden;fontSize=11;" vertex="1" parent="5PAfQ1aydiVWRfnhMQ-c-394">
          <mxGeometry x="36" width="129" height="22" as="geometry">
            <mxRectangle width="129" height="22" as="alternateBounds" />
          </mxGeometry>
        </mxCell>
        <mxCell id="5PAfQ1aydiVWRfnhMQ-c-397" style="shape=tableRow;horizontal=0;startSize=0;swimlaneHead=0;swimlaneBody=0;fillColor=none;collapsible=0;dropTarget=0;points=[[0,0.5],[1,0.5]];portConstraint=eastwest;top=0;left=0;right=0;bottom=0;" vertex="1" parent="5PAfQ1aydiVWRfnhMQ-c-378">
          <mxGeometry y="157" width="165" height="22" as="geometry" />
        </mxCell>
        <mxCell id="5PAfQ1aydiVWRfnhMQ-c-398" value="float" style="shape=partialRectangle;connectable=0;fillColor=none;top=0;left=0;bottom=0;right=0;align=left;spacingLeft=2;overflow=hidden;fontSize=11;" vertex="1" parent="5PAfQ1aydiVWRfnhMQ-c-397">
          <mxGeometry width="36" height="22" as="geometry">
            <mxRectangle width="36" height="22" as="alternateBounds" />
          </mxGeometry>
        </mxCell>
        <mxCell id="5PAfQ1aydiVWRfnhMQ-c-399" value="FatLossTimeDuration" style="shape=partialRectangle;connectable=0;fillColor=none;top=0;left=0;bottom=0;right=0;align=left;spacingLeft=2;overflow=hidden;fontSize=11;" vertex="1" parent="5PAfQ1aydiVWRfnhMQ-c-397">
          <mxGeometry x="36" width="129" height="22" as="geometry">
            <mxRectangle width="129" height="22" as="alternateBounds" />
          </mxGeometry>
        </mxCell>
        <mxCell id="5PAfQ1aydiVWRfnhMQ-c-400" style="shape=tableRow;horizontal=0;startSize=0;swimlaneHead=0;swimlaneBody=0;fillColor=none;collapsible=0;dropTarget=0;points=[[0,0.5],[1,0.5]];portConstraint=eastwest;top=0;left=0;right=0;bottom=0;" vertex="1" parent="5PAfQ1aydiVWRfnhMQ-c-378">
          <mxGeometry y="179" width="165" height="22" as="geometry" />
        </mxCell>
        <mxCell id="5PAfQ1aydiVWRfnhMQ-c-401" value="float" style="shape=partialRectangle;connectable=0;fillColor=none;top=0;left=0;bottom=0;right=0;align=left;spacingLeft=2;overflow=hidden;fontSize=11;" vertex="1" parent="5PAfQ1aydiVWRfnhMQ-c-400">
          <mxGeometry width="36" height="22" as="geometry">
            <mxRectangle width="36" height="22" as="alternateBounds" />
          </mxGeometry>
        </mxCell>
        <mxCell id="5PAfQ1aydiVWRfnhMQ-c-402" value="BodyFatPercentage" style="shape=partialRectangle;connectable=0;fillColor=none;top=0;left=0;bottom=0;right=0;align=left;spacingLeft=2;overflow=hidden;fontSize=11;" vertex="1" parent="5PAfQ1aydiVWRfnhMQ-c-400">
          <mxGeometry x="36" width="129" height="22" as="geometry">
            <mxRectangle width="129" height="22" as="alternateBounds" />
          </mxGeometry>
        </mxCell>
        <mxCell id="5PAfQ1aydiVWRfnhMQ-c-403" style="shape=tableRow;horizontal=0;startSize=0;swimlaneHead=0;swimlaneBody=0;fillColor=none;collapsible=0;dropTarget=0;points=[[0,0.5],[1,0.5]];portConstraint=eastwest;top=0;left=0;right=0;bottom=0;" vertex="1" parent="5PAfQ1aydiVWRfnhMQ-c-378">
          <mxGeometry y="201" width="165" height="22" as="geometry" />
        </mxCell>
        <mxCell id="5PAfQ1aydiVWRfnhMQ-c-404" value="string" style="shape=partialRectangle;connectable=0;fillColor=none;top=0;left=0;bottom=0;right=0;align=left;spacingLeft=2;overflow=hidden;fontSize=11;" vertex="1" parent="5PAfQ1aydiVWRfnhMQ-c-403">
          <mxGeometry width="36" height="22" as="geometry">
            <mxRectangle width="36" height="22" as="alternateBounds" />
          </mxGeometry>
        </mxCell>
        <mxCell id="5PAfQ1aydiVWRfnhMQ-c-405" value="ActivityLevel" style="shape=partialRectangle;connectable=0;fillColor=none;top=0;left=0;bottom=0;right=0;align=left;spacingLeft=2;overflow=hidden;fontSize=11;" vertex="1" parent="5PAfQ1aydiVWRfnhMQ-c-403">
          <mxGeometry x="36" width="129" height="22" as="geometry">
            <mxRectangle width="129" height="22" as="alternateBounds" />
          </mxGeometry>
        </mxCell>
        <mxCell id="5PAfQ1aydiVWRfnhMQ-c-406" style="shape=tableRow;horizontal=0;startSize=0;swimlaneHead=0;swimlaneBody=0;fillColor=none;collapsible=0;dropTarget=0;points=[[0,0.5],[1,0.5]];portConstraint=eastwest;top=0;left=0;right=0;bottom=0;" vertex="1" parent="5PAfQ1aydiVWRfnhMQ-c-378">
          <mxGeometry y="223" width="165" height="22" as="geometry" />
        </mxCell>
        <mxCell id="5PAfQ1aydiVWRfnhMQ-c-407" value="string" style="shape=partialRectangle;connectable=0;fillColor=none;top=0;left=0;bottom=0;right=0;align=left;spacingLeft=2;overflow=hidden;fontSize=11;" vertex="1" parent="5PAfQ1aydiVWRfnhMQ-c-406">
          <mxGeometry width="36" height="22" as="geometry">
            <mxRectangle width="36" height="22" as="alternateBounds" />
          </mxGeometry>
        </mxCell>
        <mxCell id="5PAfQ1aydiVWRfnhMQ-c-408" value="DietType" style="shape=partialRectangle;connectable=0;fillColor=none;top=0;left=0;bottom=0;right=0;align=left;spacingLeft=2;overflow=hidden;fontSize=11;" vertex="1" parent="5PAfQ1aydiVWRfnhMQ-c-406">
          <mxGeometry x="36" width="129" height="22" as="geometry">
            <mxRectangle width="129" height="22" as="alternateBounds" />
          </mxGeometry>
        </mxCell>
        <mxCell id="5PAfQ1aydiVWRfnhMQ-c-409" style="shape=tableRow;horizontal=0;startSize=0;swimlaneHead=0;swimlaneBody=0;fillColor=none;collapsible=0;dropTarget=0;points=[[0,0.5],[1,0.5]];portConstraint=eastwest;top=0;left=0;right=0;bottom=0;" vertex="1" parent="5PAfQ1aydiVWRfnhMQ-c-378">
          <mxGeometry y="245" width="165" height="22" as="geometry" />
        </mxCell>
        <mxCell id="5PAfQ1aydiVWRfnhMQ-c-410" value="float" style="shape=partialRectangle;connectable=0;fillColor=none;top=0;left=0;bottom=0;right=0;align=left;spacingLeft=2;overflow=hidden;fontSize=11;" vertex="1" parent="5PAfQ1aydiVWRfnhMQ-c-409">
          <mxGeometry width="36" height="22" as="geometry">
            <mxRectangle width="36" height="22" as="alternateBounds" />
          </mxGeometry>
        </mxCell>
        <mxCell id="5PAfQ1aydiVWRfnhMQ-c-411" value="Budget" style="shape=partialRectangle;connectable=0;fillColor=none;top=0;left=0;bottom=0;right=0;align=left;spacingLeft=2;overflow=hidden;fontSize=11;" vertex="1" parent="5PAfQ1aydiVWRfnhMQ-c-409">
          <mxGeometry x="36" width="129" height="22" as="geometry">
            <mxRectangle width="129" height="22" as="alternateBounds" />
          </mxGeometry>
        </mxCell>
        <mxCell id="5PAfQ1aydiVWRfnhMQ-c-412" style="shape=tableRow;horizontal=0;startSize=0;swimlaneHead=0;swimlaneBody=0;fillColor=none;collapsible=0;dropTarget=0;points=[[0,0.5],[1,0.5]];portConstraint=eastwest;top=0;left=0;right=0;bottom=0;" vertex="1" parent="5PAfQ1aydiVWRfnhMQ-c-378">
          <mxGeometry y="267" width="165" height="22" as="geometry" />
        </mxCell>
        <mxCell id="5PAfQ1aydiVWRfnhMQ-c-413" value="string" style="shape=partialRectangle;connectable=0;fillColor=none;top=0;left=0;bottom=0;right=0;align=left;spacingLeft=2;overflow=hidden;fontSize=11;" vertex="1" parent="5PAfQ1aydiVWRfnhMQ-c-412">
          <mxGeometry width="36" height="22" as="geometry">
            <mxRectangle width="36" height="22" as="alternateBounds" />
          </mxGeometry>
        </mxCell>
        <mxCell id="5PAfQ1aydiVWRfnhMQ-c-414" value="FavoriteFoods" style="shape=partialRectangle;connectable=0;fillColor=none;top=0;left=0;bottom=0;right=0;align=left;spacingLeft=2;overflow=hidden;fontSize=11;" vertex="1" parent="5PAfQ1aydiVWRfnhMQ-c-412">
          <mxGeometry x="36" width="129" height="22" as="geometry">
            <mxRectangle width="129" height="22" as="alternateBounds" />
          </mxGeometry>
        </mxCell>
        <mxCell id="5PAfQ1aydiVWRfnhMQ-c-415" value="USER_INPUT_WEEKLY_PROGRESS" style="shape=table;startSize=25;container=1;collapsible=0;childLayout=tableLayout;fixedRows=1;rowLines=1;fontStyle=1;align=center;resizeLast=1;" vertex="1" parent="1">
          <mxGeometry x="20" y="1378" width="205" height="157" as="geometry" />
        </mxCell>
        <mxCell id="5PAfQ1aydiVWRfnhMQ-c-416" style="shape=tableRow;horizontal=0;startSize=0;swimlaneHead=0;swimlaneBody=0;fillColor=none;collapsible=0;dropTarget=0;points=[[0,0.5],[1,0.5]];portConstraint=eastwest;top=0;left=0;right=0;bottom=0;" vertex="1" parent="5PAfQ1aydiVWRfnhMQ-c-415">
          <mxGeometry y="25" width="205" height="22" as="geometry" />
        </mxCell>
        <mxCell id="5PAfQ1aydiVWRfnhMQ-c-417" value="int" style="shape=partialRectangle;connectable=0;fillColor=none;top=0;left=0;bottom=0;right=0;align=left;spacingLeft=2;overflow=hidden;fontSize=11;" vertex="1" parent="5PAfQ1aydiVWRfnhMQ-c-416">
          <mxGeometry width="36" height="22" as="geometry">
            <mxRectangle width="36" height="22" as="alternateBounds" />
          </mxGeometry>
        </mxCell>
        <mxCell id="5PAfQ1aydiVWRfnhMQ-c-418" value="UserID" style="shape=partialRectangle;connectable=0;fillColor=none;top=0;left=0;bottom=0;right=0;align=left;spacingLeft=2;overflow=hidden;fontSize=11;" vertex="1" parent="5PAfQ1aydiVWRfnhMQ-c-416">
          <mxGeometry x="36" width="169" height="22" as="geometry">
            <mxRectangle width="169" height="22" as="alternateBounds" />
          </mxGeometry>
        </mxCell>
        <mxCell id="5PAfQ1aydiVWRfnhMQ-c-419" style="shape=tableRow;horizontal=0;startSize=0;swimlaneHead=0;swimlaneBody=0;fillColor=none;collapsible=0;dropTarget=0;points=[[0,0.5],[1,0.5]];portConstraint=eastwest;top=0;left=0;right=0;bottom=0;" vertex="1" parent="5PAfQ1aydiVWRfnhMQ-c-415">
          <mxGeometry y="47" width="205" height="22" as="geometry" />
        </mxCell>
        <mxCell id="5PAfQ1aydiVWRfnhMQ-c-420" value="int" style="shape=partialRectangle;connectable=0;fillColor=none;top=0;left=0;bottom=0;right=0;align=left;spacingLeft=2;overflow=hidden;fontSize=11;" vertex="1" parent="5PAfQ1aydiVWRfnhMQ-c-419">
          <mxGeometry width="36" height="22" as="geometry">
            <mxRectangle width="36" height="22" as="alternateBounds" />
          </mxGeometry>
        </mxCell>
        <mxCell id="5PAfQ1aydiVWRfnhMQ-c-421" value="WeekNumber" style="shape=partialRectangle;connectable=0;fillColor=none;top=0;left=0;bottom=0;right=0;align=left;spacingLeft=2;overflow=hidden;fontSize=11;" vertex="1" parent="5PAfQ1aydiVWRfnhMQ-c-419">
          <mxGeometry x="36" width="169" height="22" as="geometry">
            <mxRectangle width="169" height="22" as="alternateBounds" />
          </mxGeometry>
        </mxCell>
        <mxCell id="5PAfQ1aydiVWRfnhMQ-c-422" style="shape=tableRow;horizontal=0;startSize=0;swimlaneHead=0;swimlaneBody=0;fillColor=none;collapsible=0;dropTarget=0;points=[[0,0.5],[1,0.5]];portConstraint=eastwest;top=0;left=0;right=0;bottom=0;" vertex="1" parent="5PAfQ1aydiVWRfnhMQ-c-415">
          <mxGeometry y="69" width="205" height="22" as="geometry" />
        </mxCell>
        <mxCell id="5PAfQ1aydiVWRfnhMQ-c-423" value="float" style="shape=partialRectangle;connectable=0;fillColor=none;top=0;left=0;bottom=0;right=0;align=left;spacingLeft=2;overflow=hidden;fontSize=11;" vertex="1" parent="5PAfQ1aydiVWRfnhMQ-c-422">
          <mxGeometry width="36" height="22" as="geometry">
            <mxRectangle width="36" height="22" as="alternateBounds" />
          </mxGeometry>
        </mxCell>
        <mxCell id="5PAfQ1aydiVWRfnhMQ-c-424" value="WeightForWeek" style="shape=partialRectangle;connectable=0;fillColor=none;top=0;left=0;bottom=0;right=0;align=left;spacingLeft=2;overflow=hidden;fontSize=11;" vertex="1" parent="5PAfQ1aydiVWRfnhMQ-c-422">
          <mxGeometry x="36" width="169" height="22" as="geometry">
            <mxRectangle width="169" height="22" as="alternateBounds" />
          </mxGeometry>
        </mxCell>
        <mxCell id="5PAfQ1aydiVWRfnhMQ-c-425" style="shape=tableRow;horizontal=0;startSize=0;swimlaneHead=0;swimlaneBody=0;fillColor=none;collapsible=0;dropTarget=0;points=[[0,0.5],[1,0.5]];portConstraint=eastwest;top=0;left=0;right=0;bottom=0;" vertex="1" parent="5PAfQ1aydiVWRfnhMQ-c-415">
          <mxGeometry y="91" width="205" height="22" as="geometry" />
        </mxCell>
        <mxCell id="5PAfQ1aydiVWRfnhMQ-c-426" value="float" style="shape=partialRectangle;connectable=0;fillColor=none;top=0;left=0;bottom=0;right=0;align=left;spacingLeft=2;overflow=hidden;fontSize=11;" vertex="1" parent="5PAfQ1aydiVWRfnhMQ-c-425">
          <mxGeometry width="36" height="22" as="geometry">
            <mxRectangle width="36" height="22" as="alternateBounds" />
          </mxGeometry>
        </mxCell>
        <mxCell id="5PAfQ1aydiVWRfnhMQ-c-427" value="CalorieIntakeForWeek" style="shape=partialRectangle;connectable=0;fillColor=none;top=0;left=0;bottom=0;right=0;align=left;spacingLeft=2;overflow=hidden;fontSize=11;" vertex="1" parent="5PAfQ1aydiVWRfnhMQ-c-425">
          <mxGeometry x="36" width="169" height="22" as="geometry">
            <mxRectangle width="169" height="22" as="alternateBounds" />
          </mxGeometry>
        </mxCell>
        <mxCell id="5PAfQ1aydiVWRfnhMQ-c-428" style="shape=tableRow;horizontal=0;startSize=0;swimlaneHead=0;swimlaneBody=0;fillColor=none;collapsible=0;dropTarget=0;points=[[0,0.5],[1,0.5]];portConstraint=eastwest;top=0;left=0;right=0;bottom=0;" vertex="1" parent="5PAfQ1aydiVWRfnhMQ-c-415">
          <mxGeometry y="113" width="205" height="22" as="geometry" />
        </mxCell>
        <mxCell id="5PAfQ1aydiVWRfnhMQ-c-429" value="float" style="shape=partialRectangle;connectable=0;fillColor=none;top=0;left=0;bottom=0;right=0;align=left;spacingLeft=2;overflow=hidden;fontSize=11;" vertex="1" parent="5PAfQ1aydiVWRfnhMQ-c-428">
          <mxGeometry width="36" height="22" as="geometry">
            <mxRectangle width="36" height="22" as="alternateBounds" />
          </mxGeometry>
        </mxCell>
        <mxCell id="5PAfQ1aydiVWRfnhMQ-c-430" value="TargetCalorieIntake" style="shape=partialRectangle;connectable=0;fillColor=none;top=0;left=0;bottom=0;right=0;align=left;spacingLeft=2;overflow=hidden;fontSize=11;" vertex="1" parent="5PAfQ1aydiVWRfnhMQ-c-428">
          <mxGeometry x="36" width="169" height="22" as="geometry">
            <mxRectangle width="169" height="22" as="alternateBounds" />
          </mxGeometry>
        </mxCell>
        <mxCell id="5PAfQ1aydiVWRfnhMQ-c-431" style="shape=tableRow;horizontal=0;startSize=0;swimlaneHead=0;swimlaneBody=0;fillColor=none;collapsible=0;dropTarget=0;points=[[0,0.5],[1,0.5]];portConstraint=eastwest;top=0;left=0;right=0;bottom=0;" vertex="1" parent="5PAfQ1aydiVWRfnhMQ-c-415">
          <mxGeometry y="135" width="205" height="22" as="geometry" />
        </mxCell>
        <mxCell id="5PAfQ1aydiVWRfnhMQ-c-432" value="string" style="shape=partialRectangle;connectable=0;fillColor=none;top=0;left=0;bottom=0;right=0;align=left;spacingLeft=2;overflow=hidden;fontSize=11;" vertex="1" parent="5PAfQ1aydiVWRfnhMQ-c-431">
          <mxGeometry width="36" height="22" as="geometry">
            <mxRectangle width="36" height="22" as="alternateBounds" />
          </mxGeometry>
        </mxCell>
        <mxCell id="5PAfQ1aydiVWRfnhMQ-c-433" value="FeedbackOnMeals" style="shape=partialRectangle;connectable=0;fillColor=none;top=0;left=0;bottom=0;right=0;align=left;spacingLeft=2;overflow=hidden;fontSize=11;" vertex="1" parent="5PAfQ1aydiVWRfnhMQ-c-431">
          <mxGeometry x="36" width="169" height="22" as="geometry">
            <mxRectangle width="169" height="22" as="alternateBounds" />
          </mxGeometry>
        </mxCell>
        <mxCell id="5PAfQ1aydiVWRfnhMQ-c-434" value="MEAL_PREFERENCE_HISTORY" style="shape=table;startSize=25;container=1;collapsible=0;childLayout=tableLayout;fixedRows=1;rowLines=1;fontStyle=1;align=center;resizeLast=1;" vertex="1" parent="1">
          <mxGeometry x="325" y="1389" width="185" height="135" as="geometry" />
        </mxCell>
        <mxCell id="5PAfQ1aydiVWRfnhMQ-c-435" style="shape=tableRow;horizontal=0;startSize=0;swimlaneHead=0;swimlaneBody=0;fillColor=none;collapsible=0;dropTarget=0;points=[[0,0.5],[1,0.5]];portConstraint=eastwest;top=0;left=0;right=0;bottom=0;" vertex="1" parent="5PAfQ1aydiVWRfnhMQ-c-434">
          <mxGeometry y="25" width="185" height="22" as="geometry" />
        </mxCell>
        <mxCell id="5PAfQ1aydiVWRfnhMQ-c-436" value="int" style="shape=partialRectangle;connectable=0;fillColor=none;top=0;left=0;bottom=0;right=0;align=left;spacingLeft=2;overflow=hidden;fontSize=11;" vertex="1" parent="5PAfQ1aydiVWRfnhMQ-c-435">
          <mxGeometry width="36" height="22" as="geometry">
            <mxRectangle width="36" height="22" as="alternateBounds" />
          </mxGeometry>
        </mxCell>
        <mxCell id="5PAfQ1aydiVWRfnhMQ-c-437" value="UserID" style="shape=partialRectangle;connectable=0;fillColor=none;top=0;left=0;bottom=0;right=0;align=left;spacingLeft=2;overflow=hidden;fontSize=11;" vertex="1" parent="5PAfQ1aydiVWRfnhMQ-c-435">
          <mxGeometry x="36" width="149" height="22" as="geometry">
            <mxRectangle width="149" height="22" as="alternateBounds" />
          </mxGeometry>
        </mxCell>
        <mxCell id="5PAfQ1aydiVWRfnhMQ-c-438" style="shape=tableRow;horizontal=0;startSize=0;swimlaneHead=0;swimlaneBody=0;fillColor=none;collapsible=0;dropTarget=0;points=[[0,0.5],[1,0.5]];portConstraint=eastwest;top=0;left=0;right=0;bottom=0;" vertex="1" parent="5PAfQ1aydiVWRfnhMQ-c-434">
          <mxGeometry y="47" width="185" height="22" as="geometry" />
        </mxCell>
        <mxCell id="5PAfQ1aydiVWRfnhMQ-c-439" value="int" style="shape=partialRectangle;connectable=0;fillColor=none;top=0;left=0;bottom=0;right=0;align=left;spacingLeft=2;overflow=hidden;fontSize=11;" vertex="1" parent="5PAfQ1aydiVWRfnhMQ-c-438">
          <mxGeometry width="36" height="22" as="geometry">
            <mxRectangle width="36" height="22" as="alternateBounds" />
          </mxGeometry>
        </mxCell>
        <mxCell id="5PAfQ1aydiVWRfnhMQ-c-440" value="MealID" style="shape=partialRectangle;connectable=0;fillColor=none;top=0;left=0;bottom=0;right=0;align=left;spacingLeft=2;overflow=hidden;fontSize=11;" vertex="1" parent="5PAfQ1aydiVWRfnhMQ-c-438">
          <mxGeometry x="36" width="149" height="22" as="geometry">
            <mxRectangle width="149" height="22" as="alternateBounds" />
          </mxGeometry>
        </mxCell>
        <mxCell id="5PAfQ1aydiVWRfnhMQ-c-441" style="shape=tableRow;horizontal=0;startSize=0;swimlaneHead=0;swimlaneBody=0;fillColor=none;collapsible=0;dropTarget=0;points=[[0,0.5],[1,0.5]];portConstraint=eastwest;top=0;left=0;right=0;bottom=0;" vertex="1" parent="5PAfQ1aydiVWRfnhMQ-c-434">
          <mxGeometry y="69" width="185" height="22" as="geometry" />
        </mxCell>
        <mxCell id="5PAfQ1aydiVWRfnhMQ-c-442" value="date" style="shape=partialRectangle;connectable=0;fillColor=none;top=0;left=0;bottom=0;right=0;align=left;spacingLeft=2;overflow=hidden;fontSize=11;" vertex="1" parent="5PAfQ1aydiVWRfnhMQ-c-441">
          <mxGeometry width="36" height="22" as="geometry">
            <mxRectangle width="36" height="22" as="alternateBounds" />
          </mxGeometry>
        </mxCell>
        <mxCell id="5PAfQ1aydiVWRfnhMQ-c-443" value="DateConsumed" style="shape=partialRectangle;connectable=0;fillColor=none;top=0;left=0;bottom=0;right=0;align=left;spacingLeft=2;overflow=hidden;fontSize=11;" vertex="1" parent="5PAfQ1aydiVWRfnhMQ-c-441">
          <mxGeometry x="36" width="149" height="22" as="geometry">
            <mxRectangle width="149" height="22" as="alternateBounds" />
          </mxGeometry>
        </mxCell>
        <mxCell id="5PAfQ1aydiVWRfnhMQ-c-444" style="shape=tableRow;horizontal=0;startSize=0;swimlaneHead=0;swimlaneBody=0;fillColor=none;collapsible=0;dropTarget=0;points=[[0,0.5],[1,0.5]];portConstraint=eastwest;top=0;left=0;right=0;bottom=0;" vertex="1" parent="5PAfQ1aydiVWRfnhMQ-c-434">
          <mxGeometry y="91" width="185" height="22" as="geometry" />
        </mxCell>
        <mxCell id="5PAfQ1aydiVWRfnhMQ-c-445" value="string" style="shape=partialRectangle;connectable=0;fillColor=none;top=0;left=0;bottom=0;right=0;align=left;spacingLeft=2;overflow=hidden;fontSize=11;" vertex="1" parent="5PAfQ1aydiVWRfnhMQ-c-444">
          <mxGeometry width="36" height="22" as="geometry">
            <mxRectangle width="36" height="22" as="alternateBounds" />
          </mxGeometry>
        </mxCell>
        <mxCell id="5PAfQ1aydiVWRfnhMQ-c-446" value="Rating" style="shape=partialRectangle;connectable=0;fillColor=none;top=0;left=0;bottom=0;right=0;align=left;spacingLeft=2;overflow=hidden;fontSize=11;" vertex="1" parent="5PAfQ1aydiVWRfnhMQ-c-444">
          <mxGeometry x="36" width="149" height="22" as="geometry">
            <mxRectangle width="149" height="22" as="alternateBounds" />
          </mxGeometry>
        </mxCell>
        <mxCell id="5PAfQ1aydiVWRfnhMQ-c-447" style="shape=tableRow;horizontal=0;startSize=0;swimlaneHead=0;swimlaneBody=0;fillColor=none;collapsible=0;dropTarget=0;points=[[0,0.5],[1,0.5]];portConstraint=eastwest;top=0;left=0;right=0;bottom=0;" vertex="1" parent="5PAfQ1aydiVWRfnhMQ-c-434">
          <mxGeometry y="113" width="185" height="22" as="geometry" />
        </mxCell>
        <mxCell id="5PAfQ1aydiVWRfnhMQ-c-448" value="string" style="shape=partialRectangle;connectable=0;fillColor=none;top=0;left=0;bottom=0;right=0;align=left;spacingLeft=2;overflow=hidden;fontSize=11;" vertex="1" parent="5PAfQ1aydiVWRfnhMQ-c-447">
          <mxGeometry width="36" height="22" as="geometry">
            <mxRectangle width="36" height="22" as="alternateBounds" />
          </mxGeometry>
        </mxCell>
        <mxCell id="5PAfQ1aydiVWRfnhMQ-c-449" value="Macronutrients" style="shape=partialRectangle;connectable=0;fillColor=none;top=0;left=0;bottom=0;right=0;align=left;spacingLeft=2;overflow=hidden;fontSize=11;" vertex="1" parent="5PAfQ1aydiVWRfnhMQ-c-447">
          <mxGeometry x="36" width="149" height="22" as="geometry">
            <mxRectangle width="149" height="22" as="alternateBounds" />
          </mxGeometry>
        </mxCell>
        <mxCell id="5PAfQ1aydiVWRfnhMQ-c-450" value="RECIPES" style="shape=table;startSize=25;container=1;collapsible=0;childLayout=tableLayout;fixedRows=1;rowLines=1;fontStyle=1;align=center;resizeLast=1;" vertex="1" parent="1">
          <mxGeometry x="331" y="1634" width="172" height="157" as="geometry" />
        </mxCell>
        <mxCell id="5PAfQ1aydiVWRfnhMQ-c-451" style="shape=tableRow;horizontal=0;startSize=0;swimlaneHead=0;swimlaneBody=0;fillColor=none;collapsible=0;dropTarget=0;points=[[0,0.5],[1,0.5]];portConstraint=eastwest;top=0;left=0;right=0;bottom=0;" vertex="1" parent="5PAfQ1aydiVWRfnhMQ-c-450">
          <mxGeometry y="25" width="172" height="22" as="geometry" />
        </mxCell>
        <mxCell id="5PAfQ1aydiVWRfnhMQ-c-452" value="int" style="shape=partialRectangle;connectable=0;fillColor=none;top=0;left=0;bottom=0;right=0;align=left;spacingLeft=2;overflow=hidden;fontSize=11;" vertex="1" parent="5PAfQ1aydiVWRfnhMQ-c-451">
          <mxGeometry width="36" height="22" as="geometry">
            <mxRectangle width="36" height="22" as="alternateBounds" />
          </mxGeometry>
        </mxCell>
        <mxCell id="5PAfQ1aydiVWRfnhMQ-c-453" value="RecipeID" style="shape=partialRectangle;connectable=0;fillColor=none;top=0;left=0;bottom=0;right=0;align=left;spacingLeft=2;overflow=hidden;fontSize=11;" vertex="1" parent="5PAfQ1aydiVWRfnhMQ-c-451">
          <mxGeometry x="36" width="136" height="22" as="geometry">
            <mxRectangle width="136" height="22" as="alternateBounds" />
          </mxGeometry>
        </mxCell>
        <mxCell id="5PAfQ1aydiVWRfnhMQ-c-454" style="shape=tableRow;horizontal=0;startSize=0;swimlaneHead=0;swimlaneBody=0;fillColor=none;collapsible=0;dropTarget=0;points=[[0,0.5],[1,0.5]];portConstraint=eastwest;top=0;left=0;right=0;bottom=0;" vertex="1" parent="5PAfQ1aydiVWRfnhMQ-c-450">
          <mxGeometry y="47" width="172" height="22" as="geometry" />
        </mxCell>
        <mxCell id="5PAfQ1aydiVWRfnhMQ-c-455" value="string" style="shape=partialRectangle;connectable=0;fillColor=none;top=0;left=0;bottom=0;right=0;align=left;spacingLeft=2;overflow=hidden;fontSize=11;" vertex="1" parent="5PAfQ1aydiVWRfnhMQ-c-454">
          <mxGeometry width="36" height="22" as="geometry">
            <mxRectangle width="36" height="22" as="alternateBounds" />
          </mxGeometry>
        </mxCell>
        <mxCell id="5PAfQ1aydiVWRfnhMQ-c-456" value="MealName" style="shape=partialRectangle;connectable=0;fillColor=none;top=0;left=0;bottom=0;right=0;align=left;spacingLeft=2;overflow=hidden;fontSize=11;" vertex="1" parent="5PAfQ1aydiVWRfnhMQ-c-454">
          <mxGeometry x="36" width="136" height="22" as="geometry">
            <mxRectangle width="136" height="22" as="alternateBounds" />
          </mxGeometry>
        </mxCell>
        <mxCell id="5PAfQ1aydiVWRfnhMQ-c-457" style="shape=tableRow;horizontal=0;startSize=0;swimlaneHead=0;swimlaneBody=0;fillColor=none;collapsible=0;dropTarget=0;points=[[0,0.5],[1,0.5]];portConstraint=eastwest;top=0;left=0;right=0;bottom=0;" vertex="1" parent="5PAfQ1aydiVWRfnhMQ-c-450">
          <mxGeometry y="69" width="172" height="22" as="geometry" />
        </mxCell>
        <mxCell id="5PAfQ1aydiVWRfnhMQ-c-458" value="string" style="shape=partialRectangle;connectable=0;fillColor=none;top=0;left=0;bottom=0;right=0;align=left;spacingLeft=2;overflow=hidden;fontSize=11;" vertex="1" parent="5PAfQ1aydiVWRfnhMQ-c-457">
          <mxGeometry width="36" height="22" as="geometry">
            <mxRectangle width="36" height="22" as="alternateBounds" />
          </mxGeometry>
        </mxCell>
        <mxCell id="5PAfQ1aydiVWRfnhMQ-c-459" value="Ingredients" style="shape=partialRectangle;connectable=0;fillColor=none;top=0;left=0;bottom=0;right=0;align=left;spacingLeft=2;overflow=hidden;fontSize=11;" vertex="1" parent="5PAfQ1aydiVWRfnhMQ-c-457">
          <mxGeometry x="36" width="136" height="22" as="geometry">
            <mxRectangle width="136" height="22" as="alternateBounds" />
          </mxGeometry>
        </mxCell>
        <mxCell id="5PAfQ1aydiVWRfnhMQ-c-460" style="shape=tableRow;horizontal=0;startSize=0;swimlaneHead=0;swimlaneBody=0;fillColor=none;collapsible=0;dropTarget=0;points=[[0,0.5],[1,0.5]];portConstraint=eastwest;top=0;left=0;right=0;bottom=0;" vertex="1" parent="5PAfQ1aydiVWRfnhMQ-c-450">
          <mxGeometry y="91" width="172" height="22" as="geometry" />
        </mxCell>
        <mxCell id="5PAfQ1aydiVWRfnhMQ-c-461" value="float" style="shape=partialRectangle;connectable=0;fillColor=none;top=0;left=0;bottom=0;right=0;align=left;spacingLeft=2;overflow=hidden;fontSize=11;" vertex="1" parent="5PAfQ1aydiVWRfnhMQ-c-460">
          <mxGeometry width="36" height="22" as="geometry">
            <mxRectangle width="36" height="22" as="alternateBounds" />
          </mxGeometry>
        </mxCell>
        <mxCell id="5PAfQ1aydiVWRfnhMQ-c-462" value="Calories" style="shape=partialRectangle;connectable=0;fillColor=none;top=0;left=0;bottom=0;right=0;align=left;spacingLeft=2;overflow=hidden;fontSize=11;" vertex="1" parent="5PAfQ1aydiVWRfnhMQ-c-460">
          <mxGeometry x="36" width="136" height="22" as="geometry">
            <mxRectangle width="136" height="22" as="alternateBounds" />
          </mxGeometry>
        </mxCell>
        <mxCell id="5PAfQ1aydiVWRfnhMQ-c-463" style="shape=tableRow;horizontal=0;startSize=0;swimlaneHead=0;swimlaneBody=0;fillColor=none;collapsible=0;dropTarget=0;points=[[0,0.5],[1,0.5]];portConstraint=eastwest;top=0;left=0;right=0;bottom=0;" vertex="1" parent="5PAfQ1aydiVWRfnhMQ-c-450">
          <mxGeometry y="113" width="172" height="22" as="geometry" />
        </mxCell>
        <mxCell id="5PAfQ1aydiVWRfnhMQ-c-464" value="float" style="shape=partialRectangle;connectable=0;fillColor=none;top=0;left=0;bottom=0;right=0;align=left;spacingLeft=2;overflow=hidden;fontSize=11;" vertex="1" parent="5PAfQ1aydiVWRfnhMQ-c-463">
          <mxGeometry width="36" height="22" as="geometry">
            <mxRectangle width="36" height="22" as="alternateBounds" />
          </mxGeometry>
        </mxCell>
        <mxCell id="5PAfQ1aydiVWRfnhMQ-c-465" value="Cost" style="shape=partialRectangle;connectable=0;fillColor=none;top=0;left=0;bottom=0;right=0;align=left;spacingLeft=2;overflow=hidden;fontSize=11;" vertex="1" parent="5PAfQ1aydiVWRfnhMQ-c-463">
          <mxGeometry x="36" width="136" height="22" as="geometry">
            <mxRectangle width="136" height="22" as="alternateBounds" />
          </mxGeometry>
        </mxCell>
        <mxCell id="5PAfQ1aydiVWRfnhMQ-c-466" style="shape=tableRow;horizontal=0;startSize=0;swimlaneHead=0;swimlaneBody=0;fillColor=none;collapsible=0;dropTarget=0;points=[[0,0.5],[1,0.5]];portConstraint=eastwest;top=0;left=0;right=0;bottom=0;" vertex="1" parent="5PAfQ1aydiVWRfnhMQ-c-450">
          <mxGeometry y="135" width="172" height="22" as="geometry" />
        </mxCell>
        <mxCell id="5PAfQ1aydiVWRfnhMQ-c-467" value="string" style="shape=partialRectangle;connectable=0;fillColor=none;top=0;left=0;bottom=0;right=0;align=left;spacingLeft=2;overflow=hidden;fontSize=11;" vertex="1" parent="5PAfQ1aydiVWRfnhMQ-c-466">
          <mxGeometry width="36" height="22" as="geometry">
            <mxRectangle width="36" height="22" as="alternateBounds" />
          </mxGeometry>
        </mxCell>
        <mxCell id="5PAfQ1aydiVWRfnhMQ-c-468" value="DietTypeCompatibility" style="shape=partialRectangle;connectable=0;fillColor=none;top=0;left=0;bottom=0;right=0;align=left;spacingLeft=2;overflow=hidden;fontSize=11;" vertex="1" parent="5PAfQ1aydiVWRfnhMQ-c-466">
          <mxGeometry x="36" width="136" height="22" as="geometry">
            <mxRectangle width="136" height="22" as="alternateBounds" />
          </mxGeometry>
        </mxCell>
        <mxCell id="5PAfQ1aydiVWRfnhMQ-c-469" value="INGREDIENTS" style="shape=table;startSize=25;container=1;collapsible=0;childLayout=tableLayout;fixedRows=1;rowLines=1;fontStyle=1;align=center;resizeLast=1;" vertex="1" parent="1">
          <mxGeometry x="603" y="1656" width="142" height="113" as="geometry" />
        </mxCell>
        <mxCell id="5PAfQ1aydiVWRfnhMQ-c-470" style="shape=tableRow;horizontal=0;startSize=0;swimlaneHead=0;swimlaneBody=0;fillColor=none;collapsible=0;dropTarget=0;points=[[0,0.5],[1,0.5]];portConstraint=eastwest;top=0;left=0;right=0;bottom=0;" vertex="1" parent="5PAfQ1aydiVWRfnhMQ-c-469">
          <mxGeometry y="25" width="142" height="22" as="geometry" />
        </mxCell>
        <mxCell id="5PAfQ1aydiVWRfnhMQ-c-471" value="int" style="shape=partialRectangle;connectable=0;fillColor=none;top=0;left=0;bottom=0;right=0;align=left;spacingLeft=2;overflow=hidden;fontSize=11;" vertex="1" parent="5PAfQ1aydiVWRfnhMQ-c-470">
          <mxGeometry width="36" height="22" as="geometry">
            <mxRectangle width="36" height="22" as="alternateBounds" />
          </mxGeometry>
        </mxCell>
        <mxCell id="5PAfQ1aydiVWRfnhMQ-c-472" value="IngredientID" style="shape=partialRectangle;connectable=0;fillColor=none;top=0;left=0;bottom=0;right=0;align=left;spacingLeft=2;overflow=hidden;fontSize=11;" vertex="1" parent="5PAfQ1aydiVWRfnhMQ-c-470">
          <mxGeometry x="36" width="106" height="22" as="geometry">
            <mxRectangle width="106" height="22" as="alternateBounds" />
          </mxGeometry>
        </mxCell>
        <mxCell id="5PAfQ1aydiVWRfnhMQ-c-473" style="shape=tableRow;horizontal=0;startSize=0;swimlaneHead=0;swimlaneBody=0;fillColor=none;collapsible=0;dropTarget=0;points=[[0,0.5],[1,0.5]];portConstraint=eastwest;top=0;left=0;right=0;bottom=0;" vertex="1" parent="5PAfQ1aydiVWRfnhMQ-c-469">
          <mxGeometry y="47" width="142" height="22" as="geometry" />
        </mxCell>
        <mxCell id="5PAfQ1aydiVWRfnhMQ-c-474" value="string" style="shape=partialRectangle;connectable=0;fillColor=none;top=0;left=0;bottom=0;right=0;align=left;spacingLeft=2;overflow=hidden;fontSize=11;" vertex="1" parent="5PAfQ1aydiVWRfnhMQ-c-473">
          <mxGeometry width="36" height="22" as="geometry">
            <mxRectangle width="36" height="22" as="alternateBounds" />
          </mxGeometry>
        </mxCell>
        <mxCell id="5PAfQ1aydiVWRfnhMQ-c-475" value="IngredientName" style="shape=partialRectangle;connectable=0;fillColor=none;top=0;left=0;bottom=0;right=0;align=left;spacingLeft=2;overflow=hidden;fontSize=11;" vertex="1" parent="5PAfQ1aydiVWRfnhMQ-c-473">
          <mxGeometry x="36" width="106" height="22" as="geometry">
            <mxRectangle width="106" height="22" as="alternateBounds" />
          </mxGeometry>
        </mxCell>
        <mxCell id="5PAfQ1aydiVWRfnhMQ-c-476" style="shape=tableRow;horizontal=0;startSize=0;swimlaneHead=0;swimlaneBody=0;fillColor=none;collapsible=0;dropTarget=0;points=[[0,0.5],[1,0.5]];portConstraint=eastwest;top=0;left=0;right=0;bottom=0;" vertex="1" parent="5PAfQ1aydiVWRfnhMQ-c-469">
          <mxGeometry y="69" width="142" height="22" as="geometry" />
        </mxCell>
        <mxCell id="5PAfQ1aydiVWRfnhMQ-c-477" value="string" style="shape=partialRectangle;connectable=0;fillColor=none;top=0;left=0;bottom=0;right=0;align=left;spacingLeft=2;overflow=hidden;fontSize=11;" vertex="1" parent="5PAfQ1aydiVWRfnhMQ-c-476">
          <mxGeometry width="36" height="22" as="geometry">
            <mxRectangle width="36" height="22" as="alternateBounds" />
          </mxGeometry>
        </mxCell>
        <mxCell id="5PAfQ1aydiVWRfnhMQ-c-478" value="Location" style="shape=partialRectangle;connectable=0;fillColor=none;top=0;left=0;bottom=0;right=0;align=left;spacingLeft=2;overflow=hidden;fontSize=11;" vertex="1" parent="5PAfQ1aydiVWRfnhMQ-c-476">
          <mxGeometry x="36" width="106" height="22" as="geometry">
            <mxRectangle width="106" height="22" as="alternateBounds" />
          </mxGeometry>
        </mxCell>
        <mxCell id="5PAfQ1aydiVWRfnhMQ-c-479" style="shape=tableRow;horizontal=0;startSize=0;swimlaneHead=0;swimlaneBody=0;fillColor=none;collapsible=0;dropTarget=0;points=[[0,0.5],[1,0.5]];portConstraint=eastwest;top=0;left=0;right=0;bottom=0;" vertex="1" parent="5PAfQ1aydiVWRfnhMQ-c-469">
          <mxGeometry y="91" width="142" height="22" as="geometry" />
        </mxCell>
        <mxCell id="5PAfQ1aydiVWRfnhMQ-c-480" value="float" style="shape=partialRectangle;connectable=0;fillColor=none;top=0;left=0;bottom=0;right=0;align=left;spacingLeft=2;overflow=hidden;fontSize=11;" vertex="1" parent="5PAfQ1aydiVWRfnhMQ-c-479">
          <mxGeometry width="36" height="22" as="geometry">
            <mxRectangle width="36" height="22" as="alternateBounds" />
          </mxGeometry>
        </mxCell>
        <mxCell id="5PAfQ1aydiVWRfnhMQ-c-481" value="Cost" style="shape=partialRectangle;connectable=0;fillColor=none;top=0;left=0;bottom=0;right=0;align=left;spacingLeft=2;overflow=hidden;fontSize=11;" vertex="1" parent="5PAfQ1aydiVWRfnhMQ-c-479">
          <mxGeometry x="36" width="106" height="22" as="geometry">
            <mxRectangle width="106" height="22" as="alternateBounds" />
          </mxGeometry>
        </mxCell>
        <mxCell id="5PAfQ1aydiVWRfnhMQ-c-482" value="RECIPE_INGREDIENTS" style="shape=table;startSize=25;container=1;collapsible=0;childLayout=tableLayout;fixedRows=1;rowLines=1;fontStyle=1;align=center;resizeLast=1;" vertex="1" parent="1">
          <mxGeometry x="474" y="1890" width="144" height="91" as="geometry" />
        </mxCell>
        <mxCell id="5PAfQ1aydiVWRfnhMQ-c-483" style="shape=tableRow;horizontal=0;startSize=0;swimlaneHead=0;swimlaneBody=0;fillColor=none;collapsible=0;dropTarget=0;points=[[0,0.5],[1,0.5]];portConstraint=eastwest;top=0;left=0;right=0;bottom=0;" vertex="1" parent="5PAfQ1aydiVWRfnhMQ-c-482">
          <mxGeometry y="25" width="144" height="22" as="geometry" />
        </mxCell>
        <mxCell id="5PAfQ1aydiVWRfnhMQ-c-484" value="int" style="shape=partialRectangle;connectable=0;fillColor=none;top=0;left=0;bottom=0;right=0;align=left;spacingLeft=2;overflow=hidden;fontSize=11;" vertex="1" parent="5PAfQ1aydiVWRfnhMQ-c-483">
          <mxGeometry width="30" height="22" as="geometry">
            <mxRectangle width="30" height="22" as="alternateBounds" />
          </mxGeometry>
        </mxCell>
        <mxCell id="5PAfQ1aydiVWRfnhMQ-c-485" value="RecipeID" style="shape=partialRectangle;connectable=0;fillColor=none;top=0;left=0;bottom=0;right=0;align=left;spacingLeft=2;overflow=hidden;fontSize=11;" vertex="1" parent="5PAfQ1aydiVWRfnhMQ-c-483">
          <mxGeometry x="30" width="114" height="22" as="geometry">
            <mxRectangle width="114" height="22" as="alternateBounds" />
          </mxGeometry>
        </mxCell>
        <mxCell id="5PAfQ1aydiVWRfnhMQ-c-486" style="shape=tableRow;horizontal=0;startSize=0;swimlaneHead=0;swimlaneBody=0;fillColor=none;collapsible=0;dropTarget=0;points=[[0,0.5],[1,0.5]];portConstraint=eastwest;top=0;left=0;right=0;bottom=0;" vertex="1" parent="5PAfQ1aydiVWRfnhMQ-c-482">
          <mxGeometry y="47" width="144" height="22" as="geometry" />
        </mxCell>
        <mxCell id="5PAfQ1aydiVWRfnhMQ-c-487" value="int" style="shape=partialRectangle;connectable=0;fillColor=none;top=0;left=0;bottom=0;right=0;align=left;spacingLeft=2;overflow=hidden;fontSize=11;" vertex="1" parent="5PAfQ1aydiVWRfnhMQ-c-486">
          <mxGeometry width="30" height="22" as="geometry">
            <mxRectangle width="30" height="22" as="alternateBounds" />
          </mxGeometry>
        </mxCell>
        <mxCell id="5PAfQ1aydiVWRfnhMQ-c-488" value="IngredientID" style="shape=partialRectangle;connectable=0;fillColor=none;top=0;left=0;bottom=0;right=0;align=left;spacingLeft=2;overflow=hidden;fontSize=11;" vertex="1" parent="5PAfQ1aydiVWRfnhMQ-c-486">
          <mxGeometry x="30" width="114" height="22" as="geometry">
            <mxRectangle width="114" height="22" as="alternateBounds" />
          </mxGeometry>
        </mxCell>
        <mxCell id="5PAfQ1aydiVWRfnhMQ-c-489" style="shape=tableRow;horizontal=0;startSize=0;swimlaneHead=0;swimlaneBody=0;fillColor=none;collapsible=0;dropTarget=0;points=[[0,0.5],[1,0.5]];portConstraint=eastwest;top=0;left=0;right=0;bottom=0;" vertex="1" parent="5PAfQ1aydiVWRfnhMQ-c-482">
          <mxGeometry y="69" width="144" height="22" as="geometry" />
        </mxCell>
        <mxCell id="5PAfQ1aydiVWRfnhMQ-c-490" value="float" style="shape=partialRectangle;connectable=0;fillColor=none;top=0;left=0;bottom=0;right=0;align=left;spacingLeft=2;overflow=hidden;fontSize=11;" vertex="1" parent="5PAfQ1aydiVWRfnhMQ-c-489">
          <mxGeometry width="30" height="22" as="geometry">
            <mxRectangle width="30" height="22" as="alternateBounds" />
          </mxGeometry>
        </mxCell>
        <mxCell id="5PAfQ1aydiVWRfnhMQ-c-491" value="Quantity" style="shape=partialRectangle;connectable=0;fillColor=none;top=0;left=0;bottom=0;right=0;align=left;spacingLeft=2;overflow=hidden;fontSize=11;" vertex="1" parent="5PAfQ1aydiVWRfnhMQ-c-489">
          <mxGeometry x="30" width="114" height="22" as="geometry">
            <mxRectangle width="114" height="22" as="alternateBounds" />
          </mxGeometry>
        </mxCell>
        <mxCell id="5PAfQ1aydiVWRfnhMQ-c-492" value="has" style="curved=1;startArrow=circle;startSize=10;;endArrow=ERoneToMany;endSize=10;;exitX=0;exitY=0.88;entryX=0.5;entryY=0;rounded=0;endFill=0;startFill=1;" edge="1" parent="1" source="5PAfQ1aydiVWRfnhMQ-c-378" target="5PAfQ1aydiVWRfnhMQ-c-415">
          <mxGeometry relative="1" as="geometry">
            <Array as="points">
              <mxPoint x="122" y="1328" />
            </Array>
          </mxGeometry>
        </mxCell>
        <mxCell id="5PAfQ1aydiVWRfnhMQ-c-493" value="has" style="curved=1;startArrow=oval;startSize=10;;endArrow=ERoneToMany;endSize=10;;exitX=1;exitY=0.88;entryX=0.5;entryY=0;rounded=0;endFill=0;startFill=0;" edge="1" parent="1" source="5PAfQ1aydiVWRfnhMQ-c-378" target="5PAfQ1aydiVWRfnhMQ-c-434">
          <mxGeometry relative="1" as="geometry">
            <Array as="points">
              <mxPoint x="417" y="1328" />
            </Array>
          </mxGeometry>
        </mxCell>
        <mxCell id="5PAfQ1aydiVWRfnhMQ-c-494" value="links" style="curved=1;startArrow=ERmany;startSize=10;;endArrow=ERmandOne;endSize=10;;exitX=0.5;exitY=1;entryX=0.5;entryY=0;rounded=0;" edge="1" parent="1" source="5PAfQ1aydiVWRfnhMQ-c-434" target="5PAfQ1aydiVWRfnhMQ-c-450">
          <mxGeometry relative="1" as="geometry">
            <Array as="points" />
          </mxGeometry>
        </mxCell>
        <mxCell id="5PAfQ1aydiVWRfnhMQ-c-495" value="contains" style="curved=1;startArrow=ERmandOne;startSize=10;;endArrow=ERmany;endSize=10;;exitX=0.5;exitY=1;entryX=0.07;entryY=0;rounded=0;" edge="1" parent="1" source="5PAfQ1aydiVWRfnhMQ-c-450" target="5PAfQ1aydiVWRfnhMQ-c-482">
          <mxGeometry relative="1" as="geometry">
            <Array as="points">
              <mxPoint x="417" y="1840" />
            </Array>
          </mxGeometry>
        </mxCell>
        <mxCell id="5PAfQ1aydiVWRfnhMQ-c-496" value="part_of" style="curved=1;startArrow=ERmany;startSize=10;;endArrow=ERmany;endSize=10;;exitX=0.5;exitY=1;entryX=0.92;entryY=0;rounded=0;startFill=0;" edge="1" parent="1" source="5PAfQ1aydiVWRfnhMQ-c-469" target="5PAfQ1aydiVWRfnhMQ-c-482">
          <mxGeometry relative="1" as="geometry">
            <Array as="points">
              <mxPoint x="674" y="1840" />
            </Array>
          </mxGeometry>
        </mxCell>
      </root>
    </mxGraphModel>
  </diagram>
</mxfile>
